<svg width="25" height="24" viewBox="0 0 25 24" fill="none" xmlns="http://www.w3.org/2000/svg">
<g id="ion:cart">
<path id="Vector" d="M9 21C9.82843 21 10.5 20.3284 10.5 19.5C10.5 18.6716 9.82843 18 9 18C8.17157 18 7.5 18.6716 7.5 19.5C7.5 20.3284 8.17157 21 9 21Z" fill="#9A9797"/>
<path id="Vector_2" d="M19.5 21C20.3284 21 21 20.3284 21 19.5C21 18.6716 20.3284 18 19.5 18C18.6716 18 18 18.6716 18 19.5C18 20.3284 18.6716 21 19.5 21Z" fill="#9A9797"/>
<path id="Vector_3" d="M22.6625 5.66156C22.5571 5.53268 22.4244 5.42888 22.2739 5.35769C22.1234 5.2865 21.959 5.24971 21.7925 5.25H7.52609L7.23875 3.61969C7.20811 3.44603 7.11726 3.28872 6.98216 3.17539C6.84706 3.06206 6.67634 2.99996 6.5 3H3.5C3.30109 3 3.11032 3.07902 2.96967 3.21967C2.82902 3.36032 2.75 3.55109 2.75 3.75C2.75 3.94891 2.82902 4.13968 2.96967 4.28033C3.11032 4.42098 3.30109 4.5 3.5 4.5H5.87094L8.01125 16.6303C8.04189 16.804 8.13274 16.9613 8.26784 17.0746C8.40294 17.1879 8.57366 17.25 8.75 17.25H20.75C20.9489 17.25 21.1397 17.171 21.2803 17.0303C21.421 16.8897 21.5 16.6989 21.5 16.5C21.5 16.3011 21.421 16.1103 21.2803 15.9697C21.1397 15.829 20.9489 15.75 20.75 15.75H9.37906L9.11469 14.25H20.4425C20.7026 14.2497 20.9546 14.1595 21.1558 13.9947C21.3571 13.8299 21.4952 13.6007 21.5469 13.3458L22.8969 6.59578C22.9294 6.43242 22.9253 6.26388 22.8847 6.10232C22.8442 5.94076 22.7683 5.79022 22.6625 5.66156Z" fill="#9A9797"/>
</g>
</svg>
