<svg width="25" height="24" viewBox="0 0 25 24" fill="none" xmlns="http://www.w3.org/2000/svg">
<g id="mdi:information">
<path id="Vector" d="M13.25 9H11.25V7H13.25M13.25 17H11.25V11H13.25M12.25 2C10.9368 2 9.63642 2.25866 8.42317 2.7612C7.20991 3.26375 6.10752 4.00035 5.17893 4.92893C3.30357 6.8043 2.25 9.34784 2.25 12C2.25 14.6522 3.30357 17.1957 5.17893 19.0711C6.10752 19.9997 7.20991 20.7362 8.42317 21.2388C9.63642 21.7413 10.9368 22 12.25 22C14.9022 22 17.4457 20.9464 19.3211 19.0711C21.1964 17.1957 22.25 14.6522 22.25 12C22.25 10.6868 21.9913 9.38642 21.4888 8.17317C20.9862 6.95991 20.2497 5.85752 19.3211 4.92893C18.3925 4.00035 17.2901 3.26375 16.0768 2.7612C14.8636 2.25866 13.5632 2 12.25 2Z" fill="#9A9797"/>
</g>
</svg>
